<?xml version="1.0" encoding="UTF-8"?> <svg xmlns="http://www.w3.org/2000/svg" id="Educate" width="83.23" height="79.63" viewBox="0 0 83.23 79.63"><title>Icon-Educate</title><circle cx="15.77" cy="47.19" r="9.23" fill="none" stroke="#002c6a" stroke-miterlimit="10" stroke-width="2"></circle><path d="M21.86,71.42H1.26a14.77,14.77,0,0,1,26.68-8.73" transform="translate(-0.26 -0.22)" fill="none" stroke="#002c6a" stroke-miterlimit="10" stroke-width="2"></path><circle cx="67.46" cy="47.19" r="9.23" fill="none" stroke="#002c6a" stroke-miterlimit="10" stroke-width="2"></circle><path d="M55.8,62.69a14.77,14.77,0,0,1,26.69,8.73H61.89" transform="translate(-0.26 -0.22)" fill="none" stroke="#002c6a" stroke-miterlimit="10" stroke-width="2"></path><path d="M55.21,44.19A13.34,13.34,0,1,1,41.88,30.86,13.33,13.33,0,0,1,55.21,44.19Z" transform="translate(-0.26 -0.22)" fill="none" stroke="#002c6a" stroke-miterlimit="10" stroke-width="2"></path><path d="M22.9,29a24,24,0,0,1,38,0" transform="translate(-0.26 -0.22)" fill="none" stroke="#002c6a" stroke-miterlimit="10" stroke-width="2"></path><path d="M16,22.85a33.23,33.23,0,0,1,51.76,0" transform="translate(-0.26 -0.22)" fill="none" stroke="#002c6a" stroke-miterlimit="10" stroke-width="2"></path><path d="M8.59,17.31a42.47,42.47,0,0,1,66.6,0" transform="translate(-0.26 -0.22)" fill="none" stroke="#002c6a" stroke-miterlimit="10" stroke-width="2"></path><path d="M63.21,78.85H20.55a21.33,21.33,0,0,1,42.66,0Z" transform="translate(-0.26 -0.22)" fill="none" stroke="#002c6a" stroke-miterlimit="10" stroke-width="2"></path></svg> 