<?xml version="1.0" encoding="UTF-8"?> <svg xmlns="http://www.w3.org/2000/svg" id="Binoculars" width="83.6" height="76.73" viewBox="0 0 83.6 76.73"><title>Icon-Binoculars</title><circle cx="18.74" cy="57.99" r="17.74" fill="none" stroke="#002c6a" stroke-miterlimit="10" stroke-width="2"></circle><path d="M36.78,17.19V3A8.07,8.07,0,0,0,26.14,3L20.82,17.19,15.5,22.51,4.85,47.35" transform="translate(-0.3 0)" fill="none" stroke="#002c6a" stroke-miterlimit="10" stroke-width="2"></path><circle cx="64.86" cy="57.99" r="17.74" fill="none" stroke="#002c6a" stroke-miterlimit="10" stroke-width="2"></circle><path d="M47.43,17.19v-14a8.09,8.09,0,0,1,10.64,0l5.32,14,5.32,5.32L79.36,47.35" transform="translate(-0.3 0)" fill="none" stroke="#002c6a" stroke-miterlimit="10" stroke-width="2"></path><path d="M27.91,31.38c0-3.92,6.36-7.1,14.19-7.1s14.2,3.18,14.2,7.1" transform="translate(-0.3 0)" fill="none" stroke="#002c6a" stroke-miterlimit="10" stroke-width="2"></path><line x1="36.48" y1="57.99" x2="36.48" y2="24.8" fill="none" stroke="#002c6a" stroke-miterlimit="10" stroke-width="2"></line><line x1="47.12" y1="57.99" x2="47.12" y2="24.8" fill="none" stroke="#002c6a" stroke-miterlimit="10" stroke-width="2"></line><path d="M8.4,58A10.64,10.64,0,0,1,19,47.35" transform="translate(-0.3 0)" fill="none" stroke="#002c6a" stroke-miterlimit="10" stroke-width="2"></path><path d="M54.52,58A10.64,10.64,0,0,1,65.17,47.35" transform="translate(-0.3 0)" fill="none" stroke="#002c6a" stroke-miterlimit="10" stroke-width="2"></path></svg> 